PathFileType	4	(X/Y/Z)	S01_0009_Gait_markers.trc
DataRate	CameraRate	NumFrames	NumMarkers	Units	OrigDataRate	OrigDataStartFrame	OrigNumFrames
250.000000	250.000000	4	54	mm	250.000000	214	343
Frame#	Time	HEAD_ANT			R_HEAD			L_HEAD			C7			R_BACK			L_BACK			STERNUM			R_ACROMION			R_HUM_PROX			R_HUM_ANT			R_HUM_POST			R_ELBOW_LAT			R_ELBOW_MED			R_FOREARM			R_WIRST_LAT			R_WRITS_MED			R_HAND			L_ACROMION			L_HUM_PROX			L_HUM_ANT			L_HUM_POST			L_ELBOW_LAT			L_ELBOW_MED			L_FOREARM			L_WRIST_LAT			L_WIRST_MED			L_HAND			R_ILIAC			SACRUM			L_ILIAC			R_GTROCH			R_THIGH__1			R_THIGH_2			R_THIGH_3			R_THIGH_4			R_SHANK_1			R_SHANK_2			R_SHANK_3			R_SHANK_4			R_HEEL			R_FOOT_LAT			R_FOOT_MED			L_GTROCH			L_THIGH_1			L_THIGH_2			L_THIGH_3			L_THIGH_4			L_SHANK_1			L_SHANK_2			L_SHANK_3			L_SHANK_4			L_HEEL			L_FOOT_LAT			L_FOOT_MED			
		X1	Y1	Z1	X2	Y2	Z2	X3	Y3	Z3	X4	Y4	Z4	X5	Y5	Z5	X6	Y6	Z6	X7	Y7	Z7	X8	Y8	Z8	X9	Y9	Z9	X10	Y10	Z10	X11	Y11	Z11	X12	Y12	Z12	X13	Y13	Z13	X14	Y14	Z14	X15	Y15	Z15	X16	Y16	Z16	X17	Y17	Z17	X18	Y18	Z18	X19	Y19	Z19	X20	Y20	Z20	X21	Y21	Z21	X22	Y22	Z22	X23	Y23	Z23	X24	Y24	Z24	X25	Y25	Z25	X26	Y26	Z26	X27	Y27	Z27	X28	Y28	Z28	X29	Y29	Z29	X30	Y30	Z30	X31	Y31	Z31	X32	Y32	Z32	X33	Y33	Z33	X34	Y34	Z34	X35	Y35	Z35	X36	Y36	Z36	X37	Y37	Z37	X38	Y38	Z38	X39	Y39	Z39	X40	Y40	Z40	X41	Y41	Z41	X42	Y42	Z42	X43	Y43	Z43	X44	Y44	Z44	X45	Y45	Z45	X46	Y46	Z46	X47	Y47	Z47	X48	Y48	Z48	X49	Y49	Z49	X50	Y50	Z50	X51	Y51	Z51	X52	Y52	Z52	X53	Y53	Z53	X54	Y54	Z54	

215	0.856	1345.328857421875	1744.140258789062	-321.7485046386715	1288.747802734375	1692.501953125	-243.2337188720699	1289.92919921875	1691.039916992188	-391.089691162109	1158.475830078125	1516.45947265625	-311.6360168457028	1091.35791015625	1320.99365234375	-235.5387878417966	1091.56201171875	1318.057373046875	-375.4050598144528	1341.948852539062	1359.276977539062	-309.8067932128903	1243.527954101562	1474.452514648438	-141.1197509765622	1227.075561523438	1314.7626953125	-47.80762100219697	1295.549194335938	1234.4736328125	-56.22038650512668	1177.04443359375	1226.522094726562	-27.02570724487277	1231.03466796875	1124.02783203125	-30.95578575134252	1198.233520507812	1117.92626953125	-106.3447799682615	1342.755615234375	946.673583984375	-42.46429443359354	1378.348388671875	882.6354370117188	-86.32440948486308	1318.130859375	856.3616943359375	-37.57995986938457	1392.24462890625	793.425537109375	-34.58506011962873	1236.159057617188	1468.355834960938	-479.7102355957028	1206.992309570312	1299.383544921875	-569.4701538085934	1266.064697265625	1216.218627929688	-569.993957519531	1143.777954101562	1223.7470703125	-589.812072753906	1198.065307617188	1115.563232421875	-595.6644897460935	1145.138549804688	1114.73388671875	-535.9486083984373	1289.078857421875	934.6054077148439	-589.967590332031	1322.186279296875	872.9627075195314	-541.848693847656	1269.119262695312	852.9238281250001	-599.502502441406	1345.593994140625	797.0635986328126	-594.3019409179685	1232.725952148438	1061.761352539062	-136.9315948486326	1118.157958984375	1037.863647460938	-313.5477294921873	1245.472778320312	1066.316162109375	-483.9642028808591	1186.781616210938	915.47607421875	-127.5368194580076	1236.750122070312	638.3187255859375	-133.3039245605467	1291.635864257812	655.8837890625	-120.3119049072264	1302.517578125	550.99658203125	-141.3994293212889	1237.209350585938	556.4232177734375	-145.3192443847655	1116.798950195312	410.4166259765626	-134.5738067626952	1138.3759765625	355.3472290039063	-146.7463378906249	1073.095947265625	301.9796142578126	-164.2264709472656	1035.345092773438	352.7980957031251	-157.4539947509765	866.8290405273438	258.4154052734376	-246.4331970214843	906.0474853515625	101.619873046875	-161.9227600097656	955.7664184570312	68.65293121337896	-245.3324584960937	1223.9921875	956.1900634765626	-490.9769287109373	1369.07470703125	681.9135131835939	-460.0356445312498	1314.71240234375	688.8452148437501	-483.079620361328	1317.646240234375	587.4235839843751	-447.7214965820311	1378.28076171875	604.0520629882814	-432.8011169433593	1352.519775390625	324.5867614746095	-424.1590576171874	1295.187377929688	305.8125915527345	-430.0223999023437	1285.968505859375	221.0655059814454	-412.1925659179687	1348.52099609375	224.3029022216798	-397.0843811035156	1226.709350585938	41.6871871948243	-337.768310546875	1403.768310546875	21.04109954833993	-405.926025390625	1439.1376953125	26.1851711273194	-297.0362548828125	
216	0.86	1351.044555664062	1745.252197265625	-321.8781738281246	1294.311279296875	1693.690795898438	-243.4432983398434	1295.503173828125	1692.139038085938	-391.1842041015621	1163.994262695312	1517.674682617188	-311.8339843749997	1097.203247070312	1321.771240234375	-236.5294952392575	1097.364501953125	1319.066772460938	-375.8556823730466	1347.34716796875	1360.548461914062	-309.6165771484372	1248.627563476562	1475.570190429688	-141.0356140136715	1231.855712890625	1315.956298828125	-48.00585556030244	1300.2861328125	1235.454956054688	-56.16356658935519	1181.69287109375	1227.879638671875	-27.26048851013156	1236.88916015625	1124.9521484375	-30.90287971496557	1202.745971679688	1119.174560546875	-106.2528991699216	1346.009765625	947.3295288085938	-41.80653381347635	1381.295166015625	882.96728515625	-85.42552947998027	1320.926147460938	857.2167358398438	-36.55234527587871	1394.522094726562	793.6458129882812	-33.28139877319318	1241.844360351562	1469.580688476562	-479.7406005859372	1213.389282226562	1300.6611328125	-569.5692749023434	1272.505737304688	1217.777465820313	-570.0372314453123	1150.356811523438	1224.81689453125	-590.4306640624998	1205.216674804688	1116.716674804688	-595.9293212890623	1151.373046875	1115.998779296875	-536.488098144531	1296.654663085938	936.2633666992189	-589.8041992187498	1329.78662109375	874.7672119140626	-541.5743408203123	1277.204711914062	854.6953125000001	-600.0354003906248	1353.920043945312	798.8782348632814	-593.543518066406	1239.420166015625	1063.2626953125	-136.4165191650388	1123.850952148438	1039.054077148438	-314.0306701660154	1251.155883789062	1067.514282226562	-484.1859130859373	1192.407836914062	916.6505126953125	-127.5434875488279	1245.781860351562	639.4600219726562	-133.0837554931639	1300.558959960938	657.6079711914062	-120.4557037353514	1312.225219726562	552.7216796875	-141.4850616455077	1246.970092773438	557.5970458984375	-145.1794281005858	1127.296630859375	411.1557312011719	-135.3773193359374	1149.378173828125	356.1755065917969	-146.7746582031249	1084.671752929688	302.3022460937501	-164.3272552490234	1046.670043945312	353.5938720703126	-157.4501647949218	878.530517578125	256.7230224609376	-247.1878662109374	920.72998046875	101.4717102050782	-160.5738067626953	970.6639404296875	68.30561065673834	-243.8353881835937	1229.01904296875	956.8852539062501	-491.2861328124998	1372.039794921875	681.6729736328126	-460.3197937011717	1318.3330078125	689.3980712890626	-483.0392456054686	1319.637451171875	587.6668090820314	-447.5526123046874	1380.39599609375	603.7620849609376	-432.9504394531249	1353.496948242188	324.5122070312501	-424.1274719238281	1296.644653320312	305.446502685547	-429.6157226562499	1286.564697265625	221.166732788086	-412.3366699218749	1349.1640625	224.1708374023438	-397.1498718261718	1226.753173828125	41.77421569824227	-337.4975891113281	1403.764404296875	21.00454521179208	-405.9955749511719	1439.160400390625	26.19195938110358	-297.0773010253906	
217	0.864	1356.860961914062	1746.197387695312	-322.0845031738277	1299.912475585938	1694.756225585938	-243.5253601074215	1301.38623046875	1693.2568359375	-391.4647521972652	1169.563232421875	1518.76708984375	-312.1215820312497	1102.613037109375	1322.73681640625	-237.1164703369138	1102.984252929688	1320.14599609375	-376.1198730468747	1352.939575195312	1361.589721679688	-309.391418457031	1253.71337890625	1476.822265625	-141.1551361083981	1236.689208984375	1317.137817382812	-48.14403915405244	1304.83251953125	1236.465454101562	-56.16160202026339	1186.23291015625	1229.08447265625	-27.23022460937473	1239.393798828125	1126.44873046875	-30.77420234680151	1207.3828125	1120.312744140625	-106.2478790283201	1349.2333984375	948.0074462890625	-41.14445495605447	1384.246337890625	883.2236938476562	-84.46128082275371	1323.679809570312	858.0991821289062	-35.45724868774395	1396.7890625	793.8736572265625	-32.33099365234357	1247.508178710938	1470.878051757812	-479.852630615234	1219.6611328125	1301.818115234375	-569.8336791992184	1278.893310546875	1218.895874023438	-570.063049316406	1156.8974609375	1225.835083007813	-590.9764404296873	1212.0185546875	1117.850952148438	-596.213684082031	1157.724609375	1117.0576171875	-536.9453124999998	1304.22216796875	937.8599853515626	-589.6574096679685	1337.482055664062	876.6765136718751	-541.360168457031	1285.076049804688	855.9136962890626	-599.0048217773435	1362.12841796875	800.8706054687501	-593.573791503906	1244.429077148438	1064.510620117188	-136.216354370117	1129.371704101562	1040.294067382812	-314.5972900390623	1256.928466796875	1068.7431640625	-484.2726135253904	1198.275146484375	917.6491088867188	-127.8777847290037	1255.01318359375	640.7799682617188	-133.2383728027342	1309.479248046875	659.2026977539062	-120.4393768310545	1322.65625	555.0442504882812	-141.4890289306639	1256.798583984375	558.87451171875	-145.0163574218749	1137.927734375	411.9101257324219	-135.872833251953	1160.488159179688	356.9367065429688	-146.7123413085937	1096.589477539062	302.3126831054688	-164.2473754882812	1058.004028320312	353.3742065429688	-157.8792877197265	890.3909912109375	254.8643188476563	-247.6063842773437	934.9603881835938	101.074951171875	-159.7812347412109	985.8169555664062	67.94872283935553	-242.5610046386718	1233.807739257812	957.5245971679689	-491.3088378906248	1374.961181640625	681.5122070312501	-460.5069580078123	1321.28125	689.6437377929689	-483.2944946289061	1321.515747070312	587.8255615234376	-447.426544189453	1383.052490234375	603.4993286132814	-433.0120849609374	1354.418579101562	324.415740966797	-424.0511169433593	1297.245971679688	305.821990966797	-430.3616943359374	1287.179321289062	221.2550354003907	-412.4978637695312	1349.903930664062	224.1770629882813	-397.1217041015624	1226.818115234375	41.97249221801766	-337.1820678710938	1403.758178710938	20.9672565460206	-406.0233154296875	1439.177978515625	26.18156051635749	-297.1311950683594	
218	0.868	1362.532470703125	1747.208374023438	-322.1448974609371	1305.547607421875	1695.826171875	-243.6343536376949	1307.071899414062	1694.37548828125	-391.6323547363277	1175.085693359375	1519.96875	-312.3471984863278	1108.33935546875	1323.448120117188	-238.0595245361325	1108.485107421875	1321.207641601562	-376.1902770996091	1358.465942382812	1362.666259765625	-309.3283996582028	1258.8095703125	1477.99072265625	-141.2110900878903	1241.416625976562	1318.199096679688	-48.14425277709932	1309.386840820312	1237.529052734375	-56.18863296508761	1190.658203125	1230.42919921875	-27.3570251464841	1245.120361328125	1127.291625976562	-30.58644676208471	1211.671020507812	1121.64013671875	-106.1473770141599	1352.473022460938	948.8281860351562	-40.34029006957986	1387.174438476562	883.5563354492188	-83.56092071533183	1326.484130859375	858.975341796875	-34.43931198120098	1399.227661132812	794.3237915039062	-31.12296295165998	1253.28759765625	1471.934326171875	-480.0033569335934	1225.86376953125	1303.067260742188	-570.0806274414059	1285.312622070312	1220.716918945313	-570.8143920898435	1163.413452148438	1227.0732421875	-591.2215576171873	1218.692138671875	1119.195190429688	-596.8712158203123	1164.104858398438	1118.21337890625	-537.5543212890623	1311.812133789062	939.5505981445314	-589.5851440429685	1345.341430664062	878.4391479492189	-540.851379394531	1293.085327148438	857.4435424804689	-598.8796386718748	1370.401489257812	802.8324584960939	-593.1021728515623	1250.344482421875	1065.693359375	-136.9576263427732	1134.893432617188	1041.476684570312	-314.7092285156248	1262.47607421875	1069.9453125	-484.3324890136716	1204.270874023438	919.0769653320312	-127.9579086303709	1264.033569335938	641.9317626953125	-132.7706451416014	1318.27978515625	661.14013671875	-120.0155944824217	1332.54345703125	556.9092407226562	-141.3816680908202	1266.351440429688	560.2373046875	-144.9067077636718	1148.561401367188	412.5260314941407	-136.4583129882812	1171.656616210938	357.7647705078126	-146.704360961914	1108.244262695312	302.5787353515626	-163.7184448242187	1069.187255859375	353.2736816406251	-158.2850189208984	902.3898315429688	252.6867370605469	-248.2364349365234	949.6842041015625	100.4932708740235	-159.051528930664	1001.11328125	67.30792236328131	-241.3627471923828	1239.178466796875	958.2861328125001	-491.3356018066404	1378.24755859375	681.3427734375001	-460.361602783203	1324.290771484375	689.9470214843751	-483.2854919433592	1323.9990234375	588.2163085937501	-447.8501892089843	1385.023559570312	603.1505126953126	-433.1874084472655	1355.285400390625	324.329559326172	-423.9306640624999	1297.799438476562	306.2432250976564	-430.4862976074218	1287.970947265625	221.4881744384766	-412.5771179199218	1350.51953125	224.1746520996095	-397.0527343749999	1226.894287109375	42.17599487304695	-336.9687194824219	1403.804931640625	20.94596481323251	-406.0630493164062	1439.232543945312	26.16026115417487	-297.1415405273438	
